<svg id="visual" viewBox="0 0 900 600" width="900" height="600" xmlns="http://www.w3.org/2000/svg" xmlns:xlink="http://www.w3.org/1999/xlink" version="1.1"><rect x="0" y="0" width="900" height="600" fill="#000000"></rect><defs><linearGradient id="grad1_0" x1="33.3%" y1="0%" x2="100%" y2="100%"><stop offset="20%" stop-color="#000000" stop-opacity="1"></stop><stop offset="80%" stop-color="#000000" stop-opacity="1"></stop></linearGradient></defs><defs><linearGradient id="grad2_0" x1="0%" y1="0%" x2="66.7%" y2="100%"><stop offset="20%" stop-color="#000000" stop-opacity="1"></stop><stop offset="80%" stop-color="#000000" stop-opacity="1"></stop></linearGradient></defs><g transform="translate(900, 0)"><path d="M0 270.4C-16.8 277.5 -33.5 284.6 -41.5 261.7C-49.4 238.9 -48.4 186 -52.8 162.6C-57.3 139.2 -67.1 145.3 -73.5 144.3C-80 143.4 -83.2 135.4 -107 147.2C-130.7 159.1 -175.1 190.9 -191.2 191.2C-207.3 191.5 -195.2 160.4 -198.2 144C-201.2 127.7 -219.4 126.1 -232.6 118.5C-245.7 110.9 -253.9 97.1 -254.9 82.8C-255.8 68.5 -249.5 53.6 -250.9 39.7C-252.3 25.8 -261.3 12.9 -270.4 0L0 0Z" fill="#FFFFFF"></path></g><g transform="translate(0, 600)"><path d="M0 -270.4C15.5 -270 30.9 -269.6 39.6 -249.9C48.2 -230.1 50.1 -191 58.4 -179.7C66.7 -168.5 81.3 -185.2 101.7 -199.6C122 -214 148.1 -226 158.9 -218.8C169.8 -211.5 165.5 -185 166.9 -166.9C168.3 -148.8 175.3 -139.1 169.9 -123.4C164.4 -107.8 146.5 -86.2 147 -74.9C147.6 -63.7 166.7 -62.8 176.9 -57.5C187.1 -52.2 188.4 -42.4 202.5 -32.1C216.6 -21.7 243.5 -10.9 270.4 0L0 0Z" fill="#FFFFFF"></path></g></svg>